<?xml version="1.0" encoding="UTF-8"?>
<svg id="Layer_2" data-name="Layer 2" xmlns="http://www.w3.org/2000/svg" xmlns:xlink="http://www.w3.org/1999/xlink" viewBox="0 0 246.42 283.52">
  <defs>
    <style>
      .cls-1 {
        fill: url(#radial-gradient);
      }

      .cls-2 {
        fill: #a00000;
      }
    </style>
    <radialGradient id="radial-gradient" cx="123.21" cy="141.76" fx="123.21" fy="141.76" r="132.81" gradientUnits="userSpaceOnUse">
      <stop offset="0" stop-color="#600"/>
      <stop offset=".5" stop-color="#c30000"/>
      <stop offset="1" stop-color="#a00000"/>
    </radialGradient>
  </defs>
  <g id="sharingan">
    <g id="Sharingan">
      <path id="Tomoe" class="cls-1" d="M110.1,78.44s-17.99-6.17-22.64-6.93C93.46,53.45,106.12,19.87,123.88,0c17.75,19.87,30.85,52,36.52,72-4.61,.92-22.67,6.58-22.67,6.58-4.14-21.29-10.89-40.76-13.85-45.1-2.97,4.34-9.95,23.05-13.78,44.96ZM29.06,195.75c2.29-4.73,15.85-20.25,32.27-34.41,0,0-13.88-12.87-16.97-16.41C29.82,159.78,8.43,187.1,0,212.37c26.06,5.55,61.5-.14,80.15-3.89-1.65-4.41-5.22-23.09-5.22-23.09-20.91,7.55-40.62,10.78-45.86,10.36Zm142.6-9.7s-3.85,18.62-5.57,23.01c18.59,4.03,53.95,10.24,80.08,5.08-8.06-25.4-29.04-53.03-43.36-68.09-3.14,3.49-17.21,16.15-17.21,16.15,16.21,14.41,29.53,30.13,31.76,34.89-5.24,.34-24.91-3.18-45.71-11.04Zm31.03-46.99c12.61-14.25,35.45-41.53,43.73-66.86-27.65-5.55-61.19-.4-79.82,3.47,3.04,8.53,5.94,24.2,7.58,37.62,7.39,5.53,19.23,15.57,28.52,25.77Zm-129.65-26.34c1.64-13.42,4.55-29.08,7.58-37.62-18.63-3.87-52.17-9.03-79.82-3.47,8.28,25.32,31.12,52.61,43.73,66.86,9.28-10.2,21.13-20.24,28.52-25.77Zm50.02,87.69c-12.51,5.13-27.59,10.26-36.52,11.79,5.74,18.14,17.65,49.92,36.02,71.32,18.04-19.61,30.66-52.88,36.92-70.84-13.44-3.11-27.99-8.52-36.42-12.26Zm-14-117.05c-5.63-2.22-20.45-6.52-23.06-7.06-1.33,2.77-7.28,30.19-7.28,32.17,1.91-1.5,21.26-14.16,28.84-17.32,.45-2.7,.76-4.05,1.49-7.79Zm-37.58,69.87c-.99-8.16,.47-31.24,.84-33.64-1.73,.97-22.64,19.68-24.4,22.2,1.76,2,12.81,12.78,17.52,16.57,2.89-2.48,3.91-3.41,6.04-5.14Zm87.76,28.74c-6.6,4.9-27.39,15.03-29.65,15.9,1.7,1.02,28.3,9.95,31.36,10.23,.87-2.52,4.77-17.45,5.75-23.42-3.58-1.28-4.9-1.72-7.45-2.71Zm-79.55,2.02c.89,5.98,4.58,20.97,5.42,23.5,3.06-.24,29.78-8.8,31.5-9.79-2.26-.9-22.9-11.32-29.43-16.31-2.56,.96-3.89,1.37-7.49,2.6Zm101.71-24.38c4.77-3.72,16.01-14.3,17.8-16.28-1.71-2.55-22.31-21.6-24.02-22.61,.33,2.41,1.41,25.5,.27,33.65,2.09,1.76,3.11,2.71,5.95,5.24Zm-41.64-67.81c7.59,3.16,26.94,15.82,28.84,17.32,0-1.98-5.95-29.41-7.28-32.17-2.61,.54-17.43,4.84-23.06,7.06,.73,3.73,1.04,5.09,1.49,7.79Zm-63.69,57.44c3.61-3.14,19.43-15.1,26.05-19.57,.08-2.53,2.98-25.81,4.37-32.36-7.06,3.52-23.55,13.9-28.72,18.04-1.34,10.03-2.15,23.05-1.7,33.89Zm93.25-33.6c-5.17-4.14-21.66-14.52-28.72-18.04,1.39,6.56,4.3,29.83,4.37,32.36,6.61,4.47,22.43,16.44,26.05,19.57,.44-10.84-.36-23.87-1.7-33.89Zm-45.92,79.55c6.19-2.34,23.53-11.23,30.16-15.51-6.35-2.14-27.85-11.51-30.07-12.73-7.21,3.41-25.58,10.92-30.12,12.43,9.1,5.91,20.72,11.86,30.03,15.81Z"/>
      <circle id="Iris" class="cls-2" cx="123.45" cy="142.18" r="20"/>
    </g>
  </g>
</svg>